<svg xmlns="http://www.w3.org/2000/svg" width="410" height="404" viewBox="0 0 410 404" fill="none">
  <path d="M399.641 59.5246L215.643 388.545C211.844 395.338 201.405 395.378 197.546 388.618L10.5817 59.5563C6.38087 52.1896 12.6802 43.2665 21.0281 44.7586L205.223 77.6824C206.398 77.8924 207.601 77.8904 208.776 77.6763L389.119 44.8058C397.439 43.2894 403.768 52.1434 399.641 59.5246Z" fill="url(#paint0_linear)"/>
  <path d="M292.965 1.5744L156.801 28.2552C154.563 28.6937 152.906 30.5903 152.771 32.8664L144.395 174.33C144.198 177.705 147.258 180.224 150.51 179.394L188.42 169.723C191.967 168.813 195.172 172.042 194.214 175.548L183.602 214.594C182.61 218.217 186.143 221.374 189.657 220.209L212.947 212.598C216.464 211.432 219.997 214.594 219.001 218.219L201.398 283.972C200.278 288.089 205.889 290.641 208.343 286.975L210.5 283.5L323.454 102.072C325.312 99.071 322.745 95.2901 319.35 95.9817L280.975 103.611C277.431 104.327 274.627 100.908 276.262 97.6327L305.284 39.204C306.912 35.9425 304.125 32.5 300.65 33.1913L261.739 40.9317C258.249 41.625 255.454 38.1579 257.142 34.8775L270.396 8.56492C272.093 5.26855 269.278 1.7884 265.764 2.53304Z" fill="url(#paint1_linear)"/>
  <defs>
    <linearGradient id="paint0_linear" x1="6.00017" y1="32.9999" x2="235" y2="344" gradientUnits="userSpaceOnUse">
      <stop stop-color="#41D1FF"/>
      <stop offset="1" stop-color="#BD34FE"/>
    </linearGradient>
    <linearGradient id="paint1_linear" x1="194.651" y1="8.81818" x2="236.076" y2="292.989" gradientUnits="userSpaceOnUse">
      <stop stop-color="#FFEA83"/>
      <stop offset="0.0833333" stop-color="#FFDD35"/>
      <stop offset="1" stop-color="#FFA800"/>
    </linearGradient>
  </defs>
</svg>

